<svg width="24" height="24" viewBox="0 0 24 24" fill="none" xmlns="http://www.w3.org/2000/svg">
<g clip-path="url(#clip0_7332_12530)">
<path d="M15 8H15.01" stroke="#1C1C1C" stroke-width="2" stroke-linecap="round" stroke-linejoin="round"/>
<path d="M12 21H6C5.20435 21 4.44129 20.6839 3.87868 20.1213C3.31607 19.5587 3 18.7956 3 18V6C3 5.20435 3.31607 4.44129 3.87868 3.87868C4.44129 3.31607 5.20435 3 6 3H18C18.7956 3 19.5587 3.31607 20.1213 3.87868C20.6839 4.44129 21 5.20435 21 6V12" stroke="#1C1C1C" stroke-width="2" stroke-linecap="round" stroke-linejoin="round"/>
<path d="M3 16L8 11C8.928 10.107 10.072 10.107 11 11L14.993 14.993" stroke="#1C1C1C" stroke-width="2" stroke-linecap="round" stroke-linejoin="round"/>
<path d="M14 14L15 13C15.47 12.548 15.995 12.325 16.52 12.33" stroke="#1C1C1C" stroke-width="2" stroke-linecap="round" stroke-linejoin="round"/>
<path d="M19 22.5C19.2053 21.6513 19.6406 20.8755 20.2581 20.2581C20.8755 19.6406 21.6513 19.2053 22.5 19C21.6513 18.7947 20.8755 18.3594 20.2581 17.7419C19.6406 17.1245 19.2053 16.3487 19 15.5C18.7947 16.3487 18.3594 17.1245 17.7419 17.7419C17.1245 18.3594 16.3487 18.7947 15.5 19C16.3487 19.2053 17.1245 19.6406 17.7419 20.2581C18.3594 20.8755 18.7947 21.6513 19 22.5Z" stroke="#1C1C1C" stroke-width="2" stroke-linecap="round" stroke-linejoin="round"/>
</g>
<defs>
<clipPath id="clip0_7332_12530">
<rect width="24" height="24" fill="white"/>
</clipPath>
</defs>
</svg>
